HIERARCHY
ROOT Hips
{
	OFFSET 0.000003 96.368652 -0.035689
	CHANNELS 6 Xposition Yposition Zposition Xrotation Yrotation Zrotation
	JOINT Spine
	{
		OFFSET 0.000010 9.226303 1.577100
		CHANNELS 6 Xposition Yposition Zposition Xrotation Yrotation Zrotation
		JOINT Spine1
		{
			OFFSET 0.000000 16.253998 -0.165600
			CHANNELS 6 Xposition Yposition Zposition Xrotation Yrotation Zrotation
			JOINT Spine2
			{
				OFFSET -0.000000 13.639587 -1.292299
				CHANNELS 6 Xposition Yposition Zposition Xrotation Yrotation Zrotation
				JOINT Neck
				{
					OFFSET 0.000000 13.877411 -4.354199
					CHANNELS 6 Xposition Yposition Zposition Xrotation Yrotation Zrotation
					JOINT Neck1
					{
						OFFSET 0.000000 4.339996 0.926899
						CHANNELS 6 Xposition Yposition Zposition Xrotation Yrotation Zrotation
						JOINT Head
						{
							OFFSET 0.000000 4.026611 0.858500
							CHANNELS 6 Xposition Yposition Zposition Xrotation Yrotation Zrotation
							JOINT HeadTop_End
							{
								OFFSET 0.000000 21.748810 0.000000
								CHANNELS 6 Xposition Yposition Zposition Xrotation Yrotation Zrotation
								End Site
								{
									OFFSET 0.000000 11.825378 0.000000
								}
							}
							JOINT L_Eye
							{
								OFFSET 3.005700 7.261795 7.955601
								CHANNELS 6 Xposition Yposition Zposition Xrotation Yrotation Zrotation
								End Site
								{
									OFFSET 0.000000 11.825378 0.000000
								}
							}
							JOINT R_Eye
							{
								OFFSET -3.005700 7.261795 7.955601
								CHANNELS 6 Xposition Yposition Zposition Xrotation Yrotation Zrotation
								End Site
								{
									OFFSET 0.000000 11.825378 0.000000
								}
							}
							JOINT Jaw
							{
								OFFSET 0.000000 2.030289 2.456200
								CHANNELS 6 Xposition Yposition Zposition Xrotation Yrotation Zrotation
								End Site
								{
									OFFSET 0.000000 11.825378 0.000000
								}
							}
						}
					}
				}
				JOINT L_Shoulder
				{
					OFFSET 6.144200 10.187012 -3.793198
					CHANNELS 6 Xposition Yposition Zposition Xrotation Yrotation Zrotation
					JOINT L_Arm
					{
						OFFSET 12.319103 -1.112991 -1.793500
						CHANNELS 3 Xrotation Yrotation Zrotation
						JOINT L_ForeArm
						{
							OFFSET 27.687006 -0.000015 -0.000000
							CHANNELS 3 Xrotation Yrotation Zrotation
							JOINT L_Hand
							{
								OFFSET 27.873787 0.000031 -0.000000
								CHANNELS 3 Xrotation Yrotation Zrotation
								JOINT L_HandThumb1
								{
									OFFSET 2.421021 -1.395554 2.392360
									CHANNELS 6 Xposition Yposition Zposition Xrotation Yrotation Zrotation
									JOINT L_HandThumb2
									{
										OFFSET 3.496521 -2.018692 2.018717
										CHANNELS 6 Xposition Yposition Zposition Xrotation Yrotation Zrotation
										JOINT L_HandThumb3
										{
											OFFSET 4.011398 -2.315994 2.315975
											CHANNELS 6 Xposition Yposition Zposition Xrotation Yrotation Zrotation
											JOINT L_HandThumb4
											{
												OFFSET 2.095787 -1.210007 1.209984
												CHANNELS 6 Xposition Yposition Zposition Xrotation Yrotation Zrotation
												End Site
												{
													OFFSET 1.877617 -1.197205 1.536803
												}
											}
										}
									}
								}
								JOINT L_HandIndex1
								{
									OFFSET 10.514771 -0.231369 2.264849
									CHANNELS 6 Xposition Yposition Zposition Xrotation Yrotation Zrotation
									JOINT L_HandIndex2
									{
										OFFSET 5.549301 0.000000 0.000000
										CHANNELS 3 Xrotation Yrotation Zrotation
										JOINT L_HandIndex3
										{
											OFFSET 3.391098 0.000000 0.000001
											CHANNELS 3 Xrotation Yrotation Zrotation
											JOINT L_HandIndex4
											{
												OFFSET 2.334351 0.000000 0.000011
												CHANNELS 6 Xposition Yposition Zposition Xrotation Yrotation Zrotation
												End Site
												{
													OFFSET 2.334351 0.000000 0.000101
												}
											}
										}
									}
								}
								JOINT L_HandMiddle1
								{
									OFFSET 10.490761 -0.000015 0.000002
									CHANNELS 6 Xposition Yposition Zposition Xrotation Yrotation Zrotation
									JOINT L_HandMiddle2
									{
										OFFSET 5.792099 0.000000 0.000000
										CHANNELS 3 Xrotation Yrotation Zrotation
										JOINT L_HandMiddle3
										{
											OFFSET 3.713196 0.000000 0.000000
											CHANNELS 3 Xrotation Yrotation Zrotation
											JOINT L_HandMiddle4
											{
												OFFSET 2.752045 -0.000031 0.000022
												CHANNELS 6 Xposition Yposition Zposition Xrotation Yrotation Zrotation
												End Site
												{
													OFFSET 2.752045 0.000031 -0.003599
												}
											}
										}
									}
								}
								JOINT L_HandRing1
								{
									OFFSET 10.240753 -0.046051 -2.314147
									CHANNELS 6 Xposition Yposition Zposition Xrotation Yrotation Zrotation
									JOINT L_HandRing2
									{
										OFFSET 5.445206 -0.000015 0.000676
										CHANNELS 3 Xrotation Yrotation Zrotation
										JOINT L_HandRing3
										{
											OFFSET 3.713196 0.000015 -0.000674
											CHANNELS 3 Xrotation Yrotation Zrotation
											JOINT L_HandRing4
											{
												OFFSET 2.280716 0.000000 -0.000046
												CHANNELS 3 Xrotation Yrotation Zrotation
												End Site
												{
													OFFSET 2.280716 -0.000061 0.003501
												}
											}
										}
									}
								}
								JOINT L_HandPinky1
								{
									OFFSET 9.820259 -0.209747 -4.418469
									CHANNELS 6 Xposition Yposition Zposition Xrotation Yrotation Zrotation
									JOINT L_HandPinky2
									{
										OFFSET 3.676300 0.000000 0.000000
										CHANNELS 3 Xrotation Yrotation Zrotation
										JOINT L_HandPinky3
										{
											OFFSET 2.811295 0.000000 0.000001
											CHANNELS 3 Xrotation Yrotation Zrotation
											JOINT L_HandPinky4
											{
												OFFSET 1.659546 0.000000 0.000000
												CHANNELS 3 Xrotation Yrotation Zrotation
												End Site
												{
													OFFSET 1.659546 0.000015 -0.001891
												}
											}
										}
									}
								}
							}
						}
					}
				}
				JOINT R_Shoulder
				{
					OFFSET -6.140200 10.187012 -3.793198
					CHANNELS 6 Xposition Yposition Zposition Xrotation Yrotation Zrotation
					JOINT R_Arm
					{
						OFFSET -12.323095 -1.113007 -1.793499
						CHANNELS 3 Xrotation Yrotation Zrotation
						JOINT R_ForeArm
						{
							OFFSET -27.687002 0.000015 -0.000002
							CHANNELS 3 Xrotation Yrotation Zrotation
							JOINT R_Hand
							{
								OFFSET -27.873795 -0.000015 0.000000
								CHANNELS 3 Xrotation Yrotation Zrotation
								JOINT R_HandPinky1
								{
									OFFSET -9.791023 -0.212921 -4.378341
									CHANNELS 6 Xposition Yposition Zposition Xrotation Yrotation Zrotation
									JOINT R_HandPinky2
									{
										OFFSET -3.652802 0.000000 0.000000
										CHANNELS 3 Xrotation Yrotation Zrotation
										JOINT R_HandPinky3
										{
											OFFSET -2.781998 0.000000 0.000000
											CHANNELS 3 Xrotation Yrotation Zrotation
											JOINT R_HandPinky4
											{
												OFFSET -1.612122 0.000198 0.000004
												CHANNELS 3 Xrotation Yrotation Zrotation
												End Site
												{
													OFFSET -1.612106 0.000320 -0.007100
												}
											}
										}
									}
								}
								JOINT R_HandRing1
								{
									OFFSET -10.391914 0.105164 -2.349891
									CHANNELS 6 Xposition Yposition Zposition Xrotation Yrotation Zrotation
									JOINT R_HandRing2
									{
										OFFSET -5.401306 0.000000 0.000000
										CHANNELS 3 Xrotation Yrotation Zrotation
										JOINT R_HandRing3
										{
											OFFSET -3.391602 0.000000 0.000000
											CHANNELS 3 Xrotation Yrotation Zrotation
											JOINT R_HandRing4
											{
												OFFSET -2.353172 0.000305 -0.000032
												CHANNELS 3 Xrotation Yrotation Zrotation
												End Site
												{
													OFFSET -2.353180 0.000275 0.001400
												}
											}
										}
									}
								}
								JOINT R_HandMiddle1
								{
									OFFSET -10.779236 0.000000 0.000001
									CHANNELS 6 Xposition Yposition Zposition Xrotation Yrotation Zrotation
									JOINT R_HandMiddle2
									{
										OFFSET -5.616806 0.000000 0.000000
										CHANNELS 3 Xrotation Yrotation Zrotation
										JOINT R_HandMiddle3
										{
											OFFSET -3.736397 0.000000 0.000000
											CHANNELS 3 Xrotation Yrotation Zrotation
											JOINT R_HandMiddle4
											{
												OFFSET -2.691521 0.000336 -0.000028
												CHANNELS 3 Xrotation Yrotation Zrotation
												End Site
												{
													OFFSET -2.691513 0.000214 0.009200
												}
											}
										}
									}
								}
								JOINT R_HandIndex1
								{
									OFFSET -10.577324 -0.175369 2.287349
									CHANNELS 6 Xposition Yposition Zposition Xrotation Yrotation Zrotation
									JOINT R_HandIndex2
									{
										OFFSET -5.376801 0.000000 0.000001
										CHANNELS 3 Xrotation Yrotation Zrotation
										JOINT R_HandIndex3
										{
											OFFSET -3.385498 0.000000 0.000001
											CHANNELS 3 Xrotation Yrotation Zrotation
											JOINT R_HandIndex4
											{
												OFFSET -2.363556 0.000305 0.000042
												CHANNELS 3 Xrotation Yrotation Zrotation
												End Site
												{
													OFFSET -2.363548 0.000381 -0.006501
												}
											}
										}
									}
								}
								JOINT R_HandThumb1
								{
									OFFSET -2.570442 -1.245102 2.319054
									CHANNELS 6 Xposition Yposition Zposition Xrotation Yrotation Zrotation
									JOINT R_HandThumb2
									{
										OFFSET -3.518791 -2.031555 2.031563
										CHANNELS 6 Xposition Yposition Zposition Xrotation Yrotation Zrotation
										JOINT R_HandThumb3
										{
											OFFSET -3.945267 -2.277756 2.277756
											CHANNELS 6 Xposition Yposition Zposition Xrotation Yrotation Zrotation
											JOINT R_HandThumb4
											{
												OFFSET -2.055496 -1.186386 1.186664
												CHANNELS 3 Xrotation Yrotation Zrotation
												End Site
												{
													OFFSET -1.840202 -1.174805 1.508071
												}
											}
										}
									}
								}
							}
						}
					}
				}
			}
		}
	}
	JOINT L_UpLeg
	{
		OFFSET 9.633796 -3.273308 -0.000000
		CHANNELS 6 Xposition Yposition Zposition Xrotation Yrotation Zrotation
		JOINT L_Leg
		{
			OFFSET -0.006490 -41.762173 -0.553830
			CHANNELS 3 Xrotation Yrotation Zrotation
			JOINT L_Foot
			{
				OFFSET 0.006493 -39.146984 -2.021915
				CHANNELS 3 Xrotation Yrotation Zrotation
				JOINT L_ToeBase
				{
					OFFSET -0.183300 -12.185708 8.282301
					CHANNELS 6 Xposition Yposition Zposition Xrotation Yrotation Zrotation
					JOINT L_Toe_End
					{
						OFFSET -0.094684 -0.116787 6.663326
						CHANNELS 3 Xrotation Yrotation Zrotation
						End Site
						{
							OFFSET -0.094684 -0.116787 6.663328
						}
					}
				}
			}
		}
	}
	JOINT R_UpLeg
	{
		OFFSET -9.633803 -3.273293 0.000000
		CHANNELS 6 Xposition Yposition Zposition Xrotation Yrotation Zrotation
		JOINT R_Leg
		{
			OFFSET -0.006491 -41.762146 -0.555884
			CHANNELS 3 Xrotation Yrotation Zrotation
			JOINT R_Foot
			{
				OFFSET 0.006493 -39.147087 -2.019920
				CHANNELS 3 Xrotation Yrotation Zrotation
				JOINT R_ToeBase
				{
					OFFSET -0.183299 -12.185700 8.282300
					CHANNELS 6 Xposition Yposition Zposition Xrotation Yrotation Zrotation
					JOINT R_Toe_End
					{
						OFFSET 0.094687 -0.116863 6.675869
						CHANNELS 3 Xrotation Yrotation Zrotation
						End Site
						{
							OFFSET 0.094687 -0.116863 6.675869
						}
					}
				}
			}
		}
	}
}
MOTION
Frames: 4
Frame Time: 0.033333
-2.502847 88.032097 3.894432 -18.832783 -49.728668 -13.224377 0.000010 9.226296 1.577098 15.988100 -0.729542 -5.545628 0.000001 16.253996 -0.165603 21.271145 7.951683 6.132691 0.000004 13.639592 -1.292302 17.361479 12.263870 9.070814 0.000002 13.877403 -4.354200 -5.898948 3.893333 0.196945 0.000002 4.339981 0.926918 -0.000003 0.000004 -0.000003 0.000006 4.026590 0.858505 -3.413271 29.522567 -13.001074 0.000004 21.748810 0.000005 -0.000001 -0.000000 -0.000001 3.005704 7.261780 7.955608 -0.000001 -0.000000 -0.000001 -3.005699 7.261780 7.955608 -0.000001 -0.000000 -0.000001 0.000007 2.030273 2.456202 -0.000001 -0.000000 -0.000001 6.144205 10.187003 -3.793208 10.143663 -24.788531 -0.183674 -60.321027 -3.384109 -49.464445 -85.785229 15.580717 -90.590923 -44.657740 -9.423916 -5.106809 2.421017 -1.395549 2.392367 0.699351 9.503617 -2.418236 3.496514 -2.018680 2.018713 5.975149 12.647557 1.348391 4.011406 -2.315996 2.315969 -23.873529 -17.664341 1.604731 2.095790 -1.210009 1.210000 0.000002 0.000003 0.000005 10.514771 -0.231371 2.264854 9.479750 -1.289631 -20.785563 0.709556 2.796659 -28.467076 0.714088 2.804974 -28.559671 2.334328 0.000015 0.000003 0.000001 -0.000001 -0.000000 10.490776 -0.000020 0.000010 10.058200 -1.800433 -20.644713 1.774386 4.200814 -45.782014 1.632355 4.058115 -43.809417 2.752073 -0.000041 0.000027 -0.000000 0.000002 -0.000002 10.240751 -0.046046 -2.314143 1.256440 -0.066866 -17.945584 3.744584 5.453175 -68.964263 5.298051 9.647989 -33.747497 0.000001 0.000000 -0.000001 9.820251 -0.209747 -4.418460 -7.938271 1.609120 -6.495661 2.210777 4.584022 -51.475171 0.883893 3.096285 -31.858171 0.000002 -0.000001 -0.000001 -6.140197 10.187009 -3.793199 4.480736 -7.167432 -0.889512 -15.990453 58.323129 30.306454 43.708245 124.078815 -56.409662 -4.270846 -0.196700 -4.239920 -9.791028 -0.212903 -4.378346 -17.635758 -10.496892 3.325299 4.994418 -4.645755 94.147942 3.648025 -4.547271 77.470690 -0.000001 0.000000 -0.000000 -10.391919 0.105181 -2.349902 -12.155584 -12.624026 9.228269 6.567820 -4.249086 114.232291 3.754912 -4.569703 78.826940 0.000001 -0.000000 -0.000006 -10.779243 0.000010 -0.000007 3.764094 -12.080502 1.143650 5.715142 -4.536548 103.133459 3.160388 -4.411102 71.242070 -0.000000 -0.000000 -0.000000 -10.577333 -0.175359 2.287342 0.357796 -5.832764 5.175823 0.094370 -0.933678 11.539819 0.778275 -2.579710 33.567248 0.000000 0.000000 0.000000 -2.570434 -1.245127 2.319047 13.942813 -4.273702 -5.299911 -3.518798 -2.031535 2.031554 7.113032 -20.767539 -2.619581 -3.945260 -2.277746 2.277753 -3.460600 -24.899390 -18.653812 -0.000003 -0.000002 -0.000001 9.633794 -3.273311 -0.000003 -8.463622 10.447554 0.384243 50.188005 -10.203544 9.754016 -29.076057 -8.533334 0.530460 -0.183299 -12.185706 8.282299 0.764626 -0.036757 -2.831919 0.000000 -0.000001 -0.000000 -9.633804 -3.273302 0.000006 -34.804530 -12.882868 -24.233477 63.929997 -1.939569 -4.211092 -5.471702 2.488919 -6.730107 -0.183299 -12.185699 8.282299 -0.628280 0.511900 4.003983 -0.000000 0.000002 0.000000 
-2.058430 86.901505 3.683049 -17.494737 -47.999154 -11.592087 0.000010 9.226283 1.577100 15.726697 -1.737815 -5.248760 0.000001 16.253984 -0.165602 21.362786 7.910876 6.008964 0.000003 13.639589 -1.292313 17.475410 12.178486 8.961492 0.000001 13.877398 -4.354195 -5.887098 3.719558 0.150342 0.000000 4.339981 0.926901 -0.000002 -0.000002 -0.000001 -0.000003 4.026608 0.858517 -3.358181 29.168436 -13.071940 0.000009 21.748810 0.000005 -0.000002 -0.000000 -0.000000 3.005708 7.261795 7.955608 -0.000002 -0.000000 -0.000000 -3.005692 7.261795 7.955606 -0.000002 -0.000000 -0.000000 0.000004 2.030289 2.456203 -0.000002 -0.000000 -0.000000 6.144198 10.187001 -3.793202 10.568399 -26.331498 1.528915 -60.195243 -1.903955 -49.063045 -85.748162 14.700635 -90.796573 -45.531981 -8.984666 -5.679444 2.421018 -1.395569 2.392359 0.699346 9.503616 -2.418237 3.496512 -2.018705 2.018720 5.975151 12.647558 1.348392 4.011403 -2.315980 2.315975 -23.873526 -17.664343 1.604735 2.095781 -1.210015 1.210006 -0.000001 -0.000000 0.000006 10.514762 -0.231400 2.264852 9.479749 -1.289626 -20.785565 0.709554 2.796659 -28.467076 0.714088 2.804974 -28.559666 2.334349 0.000014 0.000011 0.000008 -0.000001 0.000001 10.490764 -0.000053 0.000003 10.058202 -1.800430 -20.644715 1.774387 4.200810 -45.782010 1.632351 4.058113 -43.809421 2.752035 -0.000043 0.000021 -0.000002 -0.000001 0.000001 10.240759 -0.046091 -2.314147 1.256444 -0.066862 -17.945586 3.744580 5.453177 -68.964263 5.298059 9.647987 -33.747497 0.000000 0.000000 0.000002 9.820261 -0.209763 -4.418465 -7.938270 1.609123 -6.495662 2.210777 4.584022 -51.475171 0.883891 3.096283 -31.858171 0.000001 -0.000002 -0.000001 -6.140200 10.186996 -3.793199 3.135066 -8.511900 -0.420663 -15.346303 59.031768 31.449210 43.952605 123.576769 -56.790311 -3.660264 0.244034 -3.650950 -9.791025 -0.212918 -4.378331 -17.635762 -10.496890 3.325297 4.994421 -4.645755 94.147942 3.648025 -4.547270 77.470697 -0.000001 -0.000000 0.000000 -10.391908 0.105179 -2.349885 -12.155587 -12.624025 9.228267 6.567822 -4.249088 114.232298 3.754912 -4.569699 78.826940 -0.000000 -0.000002 -0.000002 -10.779235 -0.000005 0.000000 3.764093 -12.080502 1.143650 5.715142 -4.536547 103.133459 3.160388 -4.411101 71.242070 0.000000 -0.000000 -0.000000 -10.577335 -0.175358 2.287348 0.357795 -5.832762 5.175823 0.094371 -0.933680 11.539820 0.778273 -2.579711 33.567248 -0.000000 -0.000002 0.000001 -2.570435 -1.245129 2.319052 13.942809 -4.273703 -5.299906 -3.518813 -2.031551 2.031556 7.113034 -20.767542 -2.619575 -3.945263 -2.277739 2.277746 -3.460599 -24.899393 -18.653810 -0.000002 0.000001 0.000002 9.633795 -3.273328 -0.000003 -6.957472 9.636970 2.933813 51.570404 -10.875598 10.615199 -33.424101 -9.392209 -2.217366 -0.183301 -12.185706 8.282300 0.785236 -0.035929 -2.863972 0.000000 -0.000000 -0.000000 -9.633807 -3.273310 -0.000001 -38.843122 -11.594821 -27.038764 55.787090 -3.983301 -5.921735 -7.695065 2.877107 -6.021473 -0.183303 -12.185701 8.282295 -0.371215 0.589720 4.138355 -0.000000 -0.000001 -0.000001 
-1.657642 85.570473 3.411990 -16.299442 -46.245244 -10.077709 0.000010 9.226312 1.577102 15.473426 -2.720157 -4.995654 0.000000 16.253994 -0.165603 21.472464 7.845629 5.906291 0.000005 13.639606 -1.292306 17.601889 12.071598 8.877185 -0.000003 13.877382 -4.354196 -5.876339 3.554389 0.106983 0.000003 4.339996 0.926914 -0.000001 -0.000001 0.000002 -0.000002 4.026594 0.858520 -3.308602 28.832226 -13.136411 0.000001 21.748810 0.000007 0.000000 0.000000 -0.000000 3.005695 7.261795 7.955606 0.000000 0.000000 -0.000000 -3.005702 7.261780 7.955609 0.000000 0.000000 -0.000000 -0.000006 2.030273 2.456209 0.000000 0.000000 -0.000000 6.144200 10.186976 -3.793198 11.091499 -27.801199 3.240544 -60.211068 -0.370057 -48.490532 -85.624706 13.926974 -91.362694 -46.436950 -8.775350 -5.979303 2.421016 -1.395547 2.392354 0.699351 9.503616 -2.418236 3.496512 -2.018677 2.018731 5.975144 12.647555 1.348389 4.011401 -2.315983 2.315984 -23.873531 -17.664333 1.604730 2.095782 -1.210024 1.209977 -0.000001 -0.000002 0.000002 10.514774 -0.231360 2.264846 9.479751 -1.289631 -20.785565 0.709555 2.796660 -28.467076 0.714090 2.804973 -28.559664 2.334349 0.000016 0.000009 0.000002 -0.000001 0.000001 10.490757 -0.000007 -0.000001 10.058202 -1.800433 -20.644711 1.774388 4.200810 -45.782017 1.632353 4.058112 -43.809417 2.752052 -0.000060 0.000022 -0.000000 0.000000 0.000003 10.240759 -0.046046 -2.314153 1.256440 -0.066864 -17.945586 3.744586 5.453174 -68.964263 5.298054 9.647990 -33.747493 0.000001 0.000001 0.000003 9.820262 -0.209750 -4.418473 -7.938267 1.609119 -6.495662 2.210778 4.584019 -51.475164 0.883893 3.096284 -31.858171 -0.000002 0.000000 -0.000002 -6.140197 10.186996 -3.793199 1.791655 -9.777683 0.035242 -14.978945 59.773595 32.792404 43.574479 123.154513 -56.529559 -3.167508 0.164575 -3.196460 -9.791031 -0.212919 -4.378338 -17.635762 -10.496895 3.325297 4.994418 -4.645756 94.147942 3.648024 -4.547275 77.470690 -0.000002 0.000001 -0.000001 -10.391919 0.105181 -2.349896 -12.155588 -12.624027 9.228269 6.567818 -4.249087 114.232291 3.754913 -4.569700 78.826940 -0.000000 -0.000001 -0.000001 -10.779243 0.000010 -0.000004 3.764093 -12.080505 1.143650 5.715142 -4.536548 103.133459 3.160388 -4.411101 71.242070 0.000000 -0.000000 -0.000000 -10.577333 -0.175344 2.287348 0.357794 -5.832765 5.175823 0.094371 -0.933677 11.539818 0.778274 -2.579711 33.567248 -0.000001 -0.000002 -0.000000 -2.570450 -1.245114 2.319050 13.942807 -4.273705 -5.299907 -3.518811 -2.031547 2.031553 7.113032 -20.767542 -2.619579 -3.945256 -2.277752 2.277755 -3.460599 -24.899391 -18.653808 -0.000002 0.000006 0.000001 9.633794 -3.273307 -0.000001 -5.187812 8.983206 5.536756 52.209573 -11.770785 11.962246 -37.456672 -9.709471 -5.325192 -0.183297 -12.185707 8.282301 0.798505 -0.036286 -2.878351 -0.000000 -0.000001 -0.000000 -9.633801 -3.273289 0.000003 -41.159659 -10.486021 -29.437135 46.741389 -4.804685 -7.214041 -13.296520 3.441041 0.044235 -0.183300 -12.185703 8.282305 -0.809483 0.385906 3.516671 -0.000001 0.000001 -0.000001 
-1.436360 84.557060 3.096073 -15.242163 -44.455543 -8.672552 0.000011 9.226311 1.577097 15.291504 -3.666941 -4.883077 -0.000001 16.253975 -0.165605 21.518554 7.718720 5.897388 0.000002 13.639586 -1.292301 17.625561 11.951738 8.910503 -0.000005 13.877398 -4.354198 -5.866312 3.404769 0.066680 -0.000005 4.340012 0.926897 0.000000 0.000001 0.000002 -0.000006 4.026626 0.858497 -3.266446 28.527422 -13.193057 0.000008 21.748825 0.000001 -0.000000 -0.000000 -0.000002 3.005710 7.261810 7.955604 -0.000000 -0.000000 -0.000002 -3.005691 7.261810 7.955602 -0.000000 -0.000000 -0.000002 0.000005 2.030304 2.456205 -0.000000 -0.000000 -0.000002 6.144201 10.187010 -3.793203 11.449255 -29.251436 4.382379 -59.938585 0.730885 -47.811085 -85.531385 13.552625 -91.753537 -46.850610 -8.522205 -6.470612 2.421023 -1.395549 2.392362 0.699350 9.503615 -2.418238 3.496512 -2.018694 2.018707 5.975152 12.647557 1.348389 4.011397 -2.315976 2.315988 -23.873526 -17.664336 1.604728 2.095774 -1.210041 1.209984 -0.000004 -0.000002 0.000002 10.514774 -0.231400 2.264855 9.479748 -1.289627 -20.785562 0.709554 2.796657 -28.467078 0.714089 2.804972 -28.559668 2.334348 0.000015 0.000010 0.000004 -0.000001 0.000001 10.490764 -0.000032 0.000011 10.058199 -1.800430 -20.644711 1.774388 4.200808 -45.782014 1.632355 4.058112 -43.809421 2.752061 -0.000029 0.000016 -0.000002 0.000001 -0.000000 10.240759 -0.046058 -2.314142 1.256438 -0.066861 -17.945581 3.744583 5.453175 -68.964263 5.298056 9.647988 -33.747497 -0.000000 0.000000 0.000003 9.820261 -0.209767 -4.418457 -7.938271 1.609125 -6.495659 2.210781 4.584024 -51.475164 0.883893 3.096287 -31.858174 -0.000003 -0.000001 -0.000002 -6.140201 10.187008 -3.793202 0.747576 -10.836659 0.695869 -14.233640 60.207093 33.695956 43.271813 122.697231 -56.353248 -2.570531 0.313077 -2.465036 -9.791027 -0.212903 -4.378349 -17.635764 -10.496891 3.325299 4.994421 -4.645755 94.147942 3.648025 -4.547271 77.470690 -0.000000 0.000000 -0.000000 -10.391915 0.105166 -2.349900 -12.155585 -12.624027 9.228268 6.567821 -4.249086 114.232291 3.754914 -4.569700 78.826940 -0.000001 0.000001 -0.000002 -10.779237 0.000011 -0.000010 3.764092 -12.080504 1.143651 5.715142 -4.536547 103.133459 3.160388 -4.411101 71.242063 -0.000000 -0.000000 -0.000000 -10.577325 -0.175358 2.287331 0.357796 -5.832764 5.175823 0.094373 -0.933678 11.539819 0.778275 -2.579709 33.567248 0.000001 0.000000 -0.000001 -2.570426 -1.245129 2.319029 13.942808 -4.273700 -5.299910 -3.518809 -2.031547 2.031550 7.113032 -20.767539 -2.619577 -3.945267 -2.277737 2.277753 -3.460600 -24.899393 -18.653812 -0.000002 0.000003 0.000004 9.633794 -3.273311 -0.000003 -3.179475 7.222005 7.449561 51.803928 -11.880668 13.271377 -38.485346 -9.136257 -7.911778 -0.183297 -12.185708 8.282301 -2.102275 0.565457 -3.307582 -0.000000 0.000002 -0.000000 -9.633808 -3.273284 0.000004 -39.839179 -8.179583 -31.712920 36.229338 -7.009990 -5.419374 -14.366365 3.473076 5.478381 -0.183298 -12.185701 8.282296 0.025330 0.191278 1.340246 0.000003 -0.000001 -0.000001 
